<svg xmlns="http://www.w3.org/2000/svg" xmlns:xlink="http://www.w3.org/1999/xlink" id="esrszalajy61" shape-rendering="geometricPrecision" text-rendering="geometricPrecision" viewBox="0 0 200 200"><style>@keyframes esrszalajy65_tr__tr{0%{transform:translate(154.652417px,63.770002px) rotate(0deg);animation-timing-function:cubic-bezier(.42,0,1,1)}23.333333%{transform:translate(154.652417px,63.770002px) rotate(7.962948deg)}43.333333%{transform:translate(154.652417px,63.770002px) rotate(4.164075deg);animation-timing-function:cubic-bezier(0,0,.58,1)}63.333333%{transform:translate(154.652417px,63.770002px) rotate(12.610805deg)}73.333333%{transform:translate(154.652417px,63.770002px) rotate(13.321761deg)}}#esrszalajy65_tr{animation:esrszalajy65_tr__tr 3000ms linear infinite normal forwards}</style><g id="esrszalajy62" transform="matrix(1 0 0 1 14.23241708500002 18.33000183000001)"><circle id="esrszalajy63" r="81.67" fill="#F5F5F5" stroke="none" stroke-width="1" transform="matrix(1 0 0 1 95.31000000000000 81.67000000000000)"/><line id="esrszalajy64" x1="139.75" x2="139.75" y1="33.48" y2="160.4" fill="none" stroke="#000" stroke-linecap="round" stroke-width="6"/></g><g id="esrszalajy65_tr" transform="translate(154.652417,63.770002) rotate(0)"><g id="esrszalajy65" transform="translate(-140.420000,-45.440000)"><path id="esrszalajy66" fill="#80CBC4" stroke="#000" stroke-linejoin="round" stroke-width="5" d="M12.140000,107.090000L101.070000,55C101.070000,55,114.370000,64.740000,120.670000,80.140000C124.476366,89.667276,126.237774,99.888211,125.840000,110.140000L28.630000,144.730000C28.630000,144.730000,17.860000,136.800000,14.630000,129.300000C11.400000,121.800000,12.140000,107.090000,12.140000,107.090000Z" transform="matrix(1 0 0 1 -9.53198787967920 -17.65918638058027)"/><line id="esrszalajy67" x1="114.36" x2="140.42" y1="77.15" y2="44.76" fill="none" stroke="#000" stroke-width="5"/><line id="esrszalajy68" x1="102.63" x2="140.57" y1="47.45" y2="45.44" fill="none" stroke="#000" stroke-width="5"/><path id="esrszalajy69" fill="#EE999C" stroke="#000" stroke-width="4" d="M55.800000,134.930000L37,92.540000L51,84.250000L70.120000,129.510000Z" transform="matrix(1 0 0 1 -9.57000000000000 -18.17000000000000)"/><path id="esrszalajy610" fill="#EE999C" stroke="#000" stroke-width="4" d="M70.840000,129.930000L51,85.190000L65.800000,76.440000L86,124.210000Z" transform="matrix(1 0 0 1 -9.57000000000000 -18.17000000000000)"/></g></g></svg>